<svg aria-hidden="true" style="position: absolute; width: 0; height: 0; overflow: hidden;" version="1.1" xmlns="http://www.w3.org/2000/svg" xmlns:xlink="http://www.w3.org/1999/xlink">
<defs>
<symbol id="icon-ada" viewBox="0 0 32 32">
<path fill="#0d1e30" style="fill: var(--color1, #0d1e30)" d="M32 16c0 8.837-7.163 16-16 16s-16-7.163-16-16c0-8.837 7.163-16 16-16s16 7.163 16 16z"></path>
<path fill="#000" style="fill: var(--color2, #000)" d="M15.725 6.060c0.479-0.247 1.064 0.324 0.81 0.795-0.149 0.384-0.71 0.486-0.996 0.193-0.303-0.28-0.204-0.836 0.186-0.989zM10.57 6.606c0.291-0.118 0.66 0.144 0.63 0.457 0.030 0.338-0.39 0.588-0.687 0.427-0.393-0.15-0.348-0.778 0.057-0.884zM21.128 7.499c-0.455-0.054-0.527-0.758-0.090-0.9 0.34-0.162 0.652 0.143 0.702 0.46-0.072 0.27-0.302 0.518-0.612 0.44zM11.743 8.764c0.487-0.303 1.181 0.148 1.106 0.705-0.025 0.561-0.783 0.887-1.211 0.507-0.414-0.298-0.351-0.982 0.105-1.212zM19.173 9.086c0.217-0.55 1.097-0.568 1.344-0.032 0.245 0.417-0.056 0.934-0.491 1.076-0.577 0.106-1.124-0.508-0.853-1.044zM15.104 10.099c-0.005-0.474 0.433-0.826 0.89-0.859 0.304 0.060 0.634 0.187 0.764 0.488 0.243 0.416 0.027 0.987-0.41 1.178-0.2 0.11-0.438 0.069-0.656 0.056-0.333-0.16-0.614-0.477-0.588-0.863zM7.438 10.789c0.445-0.27 1.045 0.22 0.876 0.696-0.092 0.411-0.654 0.578-0.975 0.316-0.343-0.246-0.289-0.837 0.1-1.013zM23.9 10.787c0.377-0.288 1 0.043 0.954 0.511 0.026 0.427-0.513 0.75-0.887 0.53-0.412-0.183-0.455-0.807-0.067-1.040zM17.26 11.638c0.622-0.22 1.362 0.043 1.716 0.59 0.468 0.667 0.22 1.683-0.507 2.066-0.752 0.453-1.851 0.070-2.13-0.758-0.315-0.74 0.145-1.666 0.92-1.898zM13.607 11.711c0.69-0.32 1.619-0.052 1.952 0.642 0.392 0.676 0.089 1.617-0.612 1.966-0.702 0.393-1.693 0.095-2.032-0.63-0.381-0.702-0.043-1.655 0.692-1.978zM9.95 12.94c0.053-0.437 0.472-0.722 0.895-0.752 0.455 0.049 0.814 0.404 0.87 0.852l0.001 0.005c-0.030 0.45-0.383 0.888-0.867 0.886-0.533 0.045-1-0.477-0.898-0.991zM20.752 12.284c0.547-0.313 1.306 0.142 1.282 0.76 0.037 0.655-0.803 1.116-1.347 0.732-0.566-0.32-0.522-1.22 0.065-1.492zM12.122 14.591c0.638-0.173 1.37 0.123 1.683 0.701 0.343 0.582 0.203 1.39-0.33 1.818-0.685 0.626-1.946 0.374-2.31-0.48-0.419-0.783 0.090-1.833 0.956-2.040zM19.049 14.588c0.621-0.175 1.351 0.060 1.685 0.617 0.442 0.637 0.231 1.588-0.426 1.998-0.69 0.477-1.756 0.227-2.136-0.519-0.46-0.771 0.003-1.861 0.877-2.096zM8.009 15.314c0.552-0.205 1.164 0.394 0.94 0.933-0.136 0.49-0.839 0.672-1.202 0.31-0.425-0.34-0.268-1.095 0.262-1.243zM22.978 16.096c-0.001-0.012-0.001-0.026-0.001-0.039 0-0.445 0.348-0.809 0.787-0.835l0.002-0c0.378 0.060 0.746 0.36 0.716 0.765 0.035 0.535-0.62 0.898-1.084 0.647-0.217-0.109-0.328-0.328-0.42-0.538zM5.294 15.58c0.332-0.143 0.743 0.14 0.667 0.503-0.018 0.411-0.635 0.57-0.861 0.226-0.2-0.239-0.080-0.606 0.194-0.73zM26.243 15.571c0.234-0.163 0.61-0.046 0.702 0.223 0.157 0.294-0.131 0.696-0.467 0.647-0.472 0.042-0.624-0.665-0.235-0.87zM13.926 17.544c0.874-0.223 1.814 0.494 1.82 1.38 0.056 0.895-0.87 1.688-1.764 1.482-0.692-0.11-1.235-0.766-1.212-1.453-0.002-0.658 0.502-1.27 1.156-1.409zM17.388 17.543c0.887-0.244 1.855 0.486 1.841 1.392 0.047 0.878-0.85 1.645-1.726 1.47-0.825-0.104-1.433-0.995-1.203-1.783 0.116-0.524 0.562-0.95 1.088-1.080zM10.712 18.088c0.614-0.103 1.19 0.57 0.941 1.144-0.182 0.612-1.086 0.777-1.486 0.278-0.468-0.48-0.118-1.356 0.545-1.422zM20.866 18.115c0.548-0.226 1.22 0.24 1.178 0.825 0.022 0.643-0.808 1.087-1.343 0.711-0.607-0.337-0.496-1.33 0.165-1.536zM23.704 20.915c-0.214-0.393 0.175-0.914 0.62-0.841 0.22-0.004 0.375 0.167 0.516 0.311 0.029 0.233 0.078 0.511-0.119 0.69-0.267 0.333-0.872 0.238-1.017-0.16zM7.436 20.183c0.415-0.271 1.012 0.134 0.918 0.61-0.050 0.423-0.59 0.664-0.945 0.424-0.382-0.217-0.368-0.836 0.027-1.034zM15.629 21.066c0.543-0.235 1.235 0.23 1.183 0.818 0.040 0.65-0.815 1.1-1.346 0.71-0.59-0.335-0.491-1.321 0.163-1.528zM11.835 21.937c0.462-0.239 1.082 0.174 1.040 0.684 0.014 0.418-0.4 0.774-0.82 0.712-0.347-0.007-0.573-0.314-0.685-0.605 0.006-0.317 0.139-0.67 0.465-0.79zM19.521 21.945c0.476-0.29 1.152 0.126 1.107 0.67 0.012 0.57-0.752 0.934-1.195 0.56-0.428-0.293-0.376-0.997 0.088-1.23zM20.858 25.195c-0.212-0.314 0.037-0.693 0.38-0.765 0.277 0.055 0.57 0.26 0.511 0.574-0.040 0.427-0.674 0.557-0.891 0.192zM10.247 24.922c0.084-0.25 0.288-0.497 0.587-0.432 0.435 0.030 0.564 0.676 0.183 0.875-0.342 0.227-0.74-0.084-0.77-0.443zM15.367 25.209c0.083-0.37 0.568-0.549 0.888-0.353 0.212 0.090 0.274 0.322 0.328 0.52-0.014 0.041-0.042 0.145-0.067 0.25l-0.013 0.061c-0.131 0.152-0.3 0.305-0.518 0.3-0.405 0.047-0.771-0.404-0.619-0.777z"></path>
<path fill="#fff" style="fill: var(--color3, #fff)" d="M15.725 6.060c0.479-0.247 1.064 0.324 0.81 0.795-0.149 0.384-0.71 0.486-0.996 0.193-0.303-0.28-0.204-0.836 0.186-0.989zM10.57 6.606c0.291-0.118 0.66 0.144 0.63 0.457 0.030 0.338-0.39 0.588-0.687 0.427-0.393-0.15-0.348-0.778 0.057-0.884zM21.128 7.499c-0.455-0.054-0.527-0.758-0.090-0.9 0.34-0.162 0.652 0.143 0.702 0.46-0.072 0.27-0.302 0.518-0.612 0.44zM11.743 8.764c0.487-0.303 1.181 0.148 1.106 0.705-0.025 0.561-0.783 0.887-1.211 0.507-0.414-0.298-0.351-0.982 0.105-1.212zM19.173 9.086c0.217-0.55 1.097-0.568 1.344-0.032 0.245 0.417-0.056 0.934-0.491 1.076-0.577 0.106-1.124-0.508-0.853-1.044zM15.104 10.099c-0.005-0.474 0.433-0.826 0.89-0.859 0.304 0.060 0.634 0.187 0.764 0.488 0.243 0.416 0.027 0.987-0.41 1.178-0.2 0.11-0.438 0.069-0.656 0.056-0.333-0.16-0.614-0.477-0.588-0.863zM7.438 10.789c0.445-0.27 1.045 0.22 0.876 0.696-0.092 0.411-0.654 0.578-0.975 0.316-0.343-0.246-0.289-0.837 0.1-1.013zM23.9 10.787c0.377-0.288 1 0.043 0.954 0.511 0.026 0.427-0.513 0.75-0.887 0.53-0.412-0.183-0.455-0.807-0.067-1.040zM17.26 11.638c0.622-0.22 1.362 0.043 1.716 0.59 0.468 0.667 0.22 1.683-0.507 2.066-0.752 0.453-1.851 0.070-2.13-0.758-0.315-0.74 0.145-1.666 0.92-1.898zM13.607 11.711c0.69-0.32 1.619-0.052 1.952 0.642 0.392 0.676 0.089 1.617-0.612 1.966-0.702 0.393-1.693 0.095-2.032-0.63-0.381-0.702-0.043-1.655 0.692-1.978zM9.95 12.94c0.053-0.437 0.472-0.722 0.895-0.752 0.455 0.049 0.814 0.404 0.87 0.852l0.001 0.005c-0.030 0.45-0.383 0.888-0.867 0.886-0.533 0.045-1-0.477-0.898-0.991zM20.752 12.284c0.547-0.313 1.306 0.142 1.282 0.76 0.037 0.655-0.803 1.116-1.347 0.732-0.566-0.32-0.522-1.22 0.065-1.492zM12.122 14.591c0.638-0.173 1.37 0.123 1.683 0.701 0.343 0.582 0.203 1.39-0.33 1.818-0.685 0.626-1.946 0.374-2.31-0.48-0.419-0.783 0.090-1.833 0.956-2.040zM19.049 14.588c0.621-0.175 1.351 0.060 1.685 0.617 0.442 0.637 0.231 1.588-0.426 1.998-0.69 0.477-1.756 0.227-2.136-0.519-0.46-0.771 0.003-1.861 0.877-2.096zM8.009 15.314c0.552-0.205 1.164 0.394 0.94 0.933-0.136 0.49-0.839 0.672-1.202 0.31-0.425-0.34-0.268-1.095 0.262-1.243zM22.978 16.096c-0.001-0.012-0.001-0.026-0.001-0.039 0-0.445 0.348-0.809 0.787-0.835l0.002-0c0.378 0.060 0.746 0.36 0.716 0.765 0.035 0.535-0.62 0.898-1.084 0.647-0.217-0.109-0.328-0.328-0.42-0.538zM5.294 15.58c0.332-0.143 0.743 0.14 0.667 0.503-0.018 0.411-0.635 0.57-0.861 0.226-0.2-0.239-0.080-0.606 0.194-0.73zM26.243 15.571c0.234-0.163 0.61-0.046 0.702 0.223 0.157 0.294-0.131 0.696-0.467 0.647-0.472 0.042-0.624-0.665-0.235-0.87zM13.926 17.544c0.874-0.223 1.814 0.494 1.82 1.38 0.056 0.895-0.87 1.688-1.764 1.482-0.692-0.11-1.235-0.766-1.212-1.453-0.002-0.658 0.502-1.27 1.156-1.409zM17.388 17.543c0.887-0.244 1.855 0.486 1.841 1.392 0.047 0.878-0.85 1.645-1.726 1.47-0.825-0.104-1.433-0.995-1.203-1.783 0.116-0.524 0.562-0.95 1.088-1.080zM10.712 18.088c0.614-0.103 1.19 0.57 0.941 1.144-0.182 0.612-1.086 0.777-1.486 0.278-0.468-0.48-0.118-1.356 0.545-1.422zM20.866 18.115c0.548-0.226 1.22 0.24 1.178 0.825 0.022 0.643-0.808 1.087-1.343 0.711-0.607-0.337-0.496-1.33 0.165-1.536zM23.704 20.915c-0.214-0.393 0.175-0.914 0.62-0.841 0.22-0.004 0.375 0.167 0.516 0.311 0.029 0.233 0.078 0.511-0.119 0.69-0.267 0.333-0.872 0.238-1.017-0.16zM7.436 20.183c0.415-0.271 1.012 0.134 0.918 0.61-0.050 0.423-0.59 0.664-0.945 0.424-0.382-0.217-0.368-0.836 0.027-1.034zM15.629 21.066c0.543-0.235 1.235 0.23 1.183 0.818 0.040 0.65-0.815 1.1-1.346 0.71-0.59-0.335-0.491-1.321 0.163-1.528zM11.835 21.937c0.462-0.239 1.082 0.174 1.040 0.684 0.014 0.418-0.4 0.774-0.82 0.712-0.347-0.007-0.573-0.314-0.685-0.605 0.006-0.317 0.139-0.67 0.465-0.79zM19.521 21.945c0.476-0.29 1.152 0.126 1.107 0.67 0.012 0.57-0.752 0.934-1.195 0.56-0.428-0.293-0.376-0.997 0.088-1.23zM20.858 25.195c-0.212-0.314 0.037-0.693 0.38-0.765 0.277 0.055 0.57 0.26 0.511 0.574-0.040 0.427-0.674 0.557-0.891 0.192zM10.247 24.922c0.084-0.25 0.288-0.497 0.587-0.432 0.435 0.030 0.564 0.676 0.183 0.875-0.342 0.227-0.74-0.084-0.77-0.443zM15.367 25.209c0.083-0.37 0.568-0.549 0.888-0.353 0.212 0.090 0.274 0.322 0.328 0.52-0.014 0.041-0.042 0.145-0.067 0.25l-0.013 0.061c-0.131 0.152-0.3 0.305-0.518 0.3-0.405 0.047-0.771-0.404-0.619-0.777z"></path>
</symbol>
<symbol id="icon-aed" viewBox="0 0 32 32">
<path fill="#ef7f1c" style="fill: var(--color1, #ef7f1c)" d="M32 16c0 8.837-7.163 16-16 16s-16-7.163-16-16c0-8.837 7.163-16 16-16s16 7.163 16 16z"></path>
<path fill="#fff" style="fill: var(--color2, #fff)" d="M11.882 24.476c0.102-0.105 0.186-0.267 0.245-0.487-0.402 0.098-0.648 0.148-0.739 0.148-0.14 0-0.378-0.091-0.704-0.277s-0.49-0.322-0.49-0.413c0.067-0.067 0.144-0.123 0.225-0.164 0.123-0.060 0.242-0.091 0.364-0.091s0.353 0.084 0.689 0.252c0.095-0.158 0.158-0.273 0.189-0.353 0.031-0.078 0.045-0.172 0.045-0.28 0-0.137-0.039-0.245-0.115-0.333-0.080-0.084-0.182-0.126-0.312-0.126-0.434 0-0.872 0.294-1.316 0.886-0.088 0.109-0.157 0.22-0.214 0.332-0.052 0.112-0.081 0.214-0.081 0.301 0 0.101 0.042 0.207 0.13 0.311 0.084 0.106 0.22 0.217 0.412 0.34-0.248 0.094-0.424 0.189-0.525 0.283-0.101 0.098-0.217 0.273-0.354 0.529l2.203-0.672c0.157-0.049 0.273-0.112 0.346-0.185z"></path>
<path fill="#fff" style="fill: var(--color2, #fff)" d="M11.931 19.146c0.143-0.504 0.217-1.061 0.217-1.671 0-0.718-0.035-1.467-0.105-2.247-0.091-1.012-0.249-2.21-0.48-3.593l-0.623-3.635c-0.381 0.725-0.679 1.341-0.889 1.852-0.214 0.511-0.319 0.872-0.319 1.083 0 0.143 0.042 0.406 0.122 0.791 0.235 1.092 0.403 2.038 0.505 2.826 0.105 0.792 0.189 1.59 0.259 2.399 0.066 0.805 0.102 1.419 0.102 1.834 0 0.55-0.084 1.261-0.252 2.137l0.62 0.252c0.416-0.847 0.697-1.523 0.844-2.027z"></path>
<path fill="#fff" style="fill: var(--color2, #fff)" d="M13.898 20.585v2.878h2.878v-2.878h-2.878z"></path>
<path fill="#fff" style="fill: var(--color2, #fff)" d="M19.945 20.459h4.653v-3.299c0-1.592-0.168-2.874-0.507-3.841-0.368-1.047-0.995-1.902-1.877-2.567l-0.746 3.204c0.574 0.364 1.022 0.795 1.344 1.296 0.388 0.603 0.662 1.405 0.819 2.413h-3.515c-0.267 0-0.494-0.056-0.679-0.165-0.189-0.112-0.308-0.287-0.364-0.529l-0.421 0.021c-0.063 0.357-0.109 0.711-0.14 1.061-0.032 0.347-0.049 0.672-0.049 0.977 0 0.525 0.148 0.907 0.442 1.141 0.241 0.192 0.589 0.287 1.040 0.287z"></path>
</symbol>
<symbol id="icon-avax" viewBox="0 0 32 32">
<path fill="#fff" style="fill: var(--color3, #fff)" d="M6.106 5.489h19.745v17.957h-19.745z"></path>
<path fill="#e84142" style="fill: var(--color5, #e84142)" d="M31.968 16c0 8.825-7.154 15.979-15.979 15.979s-15.979-7.154-15.979-15.979 7.154-15.979 15.979-15.979 15.979 7.154 15.979 15.979zM11.461 22.359h-3.101c-0.652 0-0.973 0-1.17-0.126-0.212-0.137-0.341-0.365-0.357-0.616-0.012-0.232 0.149-0.514 0.471-1.079l7.657-13.496c0.326-0.573 0.491-0.86 0.699-0.966 0.224-0.114 0.491-0.114 0.714 0 0.208 0.106 0.373 0.393 0.699 0.966l1.582 2.762c0.352 0.615 0.53 0.927 0.608 1.254 0.086 0.357 0.086 0.734 0 1.091-0.078 0.33-0.255 0.644-0.612 1.268l-4.032 7.128c-0.354 0.62-0.534 0.934-0.783 1.171-0.261 0.25-0.581 0.441-0.937 0.549l-0.017 0.004c-0.326 0.090-0.691 0.090-1.421 0.090zM19.293 22.359h4.443c0.656 0 0.985 0 1.182-0.129 0.212-0.137 0.345-0.369 0.357-0.62 0.011-0.224-0.146-0.496-0.455-1.028l-0.032-0.055-2.251-3.85c-0.313-0.529-0.471-0.796-0.673-0.899-0.224-0.114-0.487-0.114-0.71 0-0.204 0.106-0.369 0.385-0.695 0.946l-2.225 3.821c-0.325 0.56-0.487 0.84-0.475 1.070 0.016 0.251 0.145 0.483 0.357 0.62 0.192 0.126 0.522 0.126 1.178 0.126z"></path>
</symbol>
<symbol id="icon-dot" viewBox="0 0 32 32">
<path fill="#e6007a" style="fill: var(--color6, #e6007a)" d="M32 16c0 8.837-7.163 16-16 16s-16-7.163-16-16c0-8.837 7.163-16 16-16s16 7.163 16 16z"></path>
<path fill="#fff" style="fill: var(--color3, #fff)" d="M16.272 6.625c-3.707 0-6.736 3.012-6.736 6.736 0 0.749 0.124 1.48 0.356 2.192 0.133 0.374 0.484 0.637 0.897 0.637 0.106 0 0.208-0.017 0.304-0.050l-0.007 0.002c0.373-0.134 0.636-0.484 0.636-0.897 0-0.106-0.018-0.209-0.050-0.304l0.002 0.007c-0.171-0.469-0.27-1.011-0.27-1.576 0-0.054 0.001-0.108 0.003-0.161l-0 0.008c0.071-2.512 2.103-4.58 4.616-4.704 0.076-0.004 0.165-0.007 0.255-0.007 2.682 0 4.856 2.172 4.86 4.853v0c-0.003 2.584-2.021 4.695-4.567 4.847l-0.013 0.001s-0.945 0.053-1.408 0.125c-0.232 0.035-0.41 0.071-0.535 0.089-0.054 0.018-0.107-0.036-0.090-0.090l0.161-0.783 0.873-4.028c0.013-0.058 0.020-0.125 0.020-0.193 0-0.444-0.31-0.816-0.726-0.911l-0.006-0.001c-0.058-0.013-0.125-0.020-0.193-0.020-0.445 0-0.817 0.311-0.911 0.727l-0.001 0.006s-2.103 9.802-2.121 9.909c-0.013 0.058-0.020 0.125-0.020 0.193 0 0.445 0.311 0.817 0.727 0.911l0.006 0.001c0.058 0.013 0.125 0.020 0.193 0.020 0.445 0 0.817-0.311 0.911-0.727l0.001-0.006c0.017-0.107 0.303-1.408 0.303-1.408 0.212-0.974 1.001-1.715 1.983-1.853l0.012-0.001c0.262-0.032 0.625-0.063 0.99-0.086l0.061-0.003c3.491-0.28 6.218-3.181 6.22-6.719v-0c0-3.724-3.030-6.736-6.737-6.736zM16.753 22.13c-0.071-0.016-0.153-0.025-0.237-0.025-0.54 0-0.992 0.382-1.098 0.891l-0.001 0.007c-0.125 0.606 0.25 1.212 0.873 1.337 0.071 0.016 0.153 0.025 0.237 0.025 0.541 0 0.992-0.383 1.098-0.892l0.001-0.007c0.124-0.623-0.25-1.212-0.874-1.336z"></path>
</symbol>
<symbol id="icon-ftm" viewBox="0 0 32 32">
<path fill="#13b5ec" style="fill: var(--color7, #13b5ec)" d="M32 16c0 8.837-7.163 16-16 16s-16-7.163-16-16c0-8.837 7.163-16 16-16s16 7.163 16 16z"></path>
<path fill="#fff" style="fill: var(--color3, #fff)" d="M17.2 12.9l3.6-2.1v4.2zM20.8 21.9l-4.8 2.8-4.8-2.8v-4.9l4.8 2.8 4.8-2.8zM11.2 10.8l3.6 2.1-3.6 2.1zM16.6 13.9l3.6 2.1-3.6 2.1zM15.4 18.1l-3.6-2.1 3.6-2.1zM20.2 9.8l-4.2 2.4-4.2-2.4 4.2-2.5zM10 9.4v13.1l6 3.4 6-3.4v-13.1l-6-3.4z"></path>
</symbol>
<symbol id="icon-ftt" viewBox="0 0 37 32">
<path fill="#02a6c2" style="fill: var(--color8, #02a6c2)" d="M10.403 0.002q13.196-0.004 26.393 0 0.004 4.265 0 8.529-13.196 0.004-26.393 0-0.004-4.265 0-8.529z"></path>
<path fill="#5fcade" style="fill: var(--color9, #5fcade)" d="M0.011 11.74q4.257-0.022 8.516 0 0.022 4.257 0 8.516-4.259 0.022-8.516 0.001-0.022-4.258 0-8.517zM10.409 11.74q9.524-0.020 19.047 0 0.020 4.257 0 8.516-9.524 0.020-19.047 0-0.020-4.257 0-8.516z"></path>
<path fill="#abebf4" style="fill: var(--color10, #abebf4)" d="M10.417 23.481q4.25-0.046 8.499 0 0.044 4.247 0.001 8.499-4.25 0.042-8.498-0.001-0.044-4.247-0.001-8.497z"></path>
</symbol>
<symbol id="icon-inr" viewBox="0 0 32 32">
<path fill="#ef7f1c" style="fill: var(--color4, #ef7f1c)" d="M32 16c0 8.837-7.163 16-16 16s-16-7.163-16-16c0-8.837 7.163-16 16-16s16 7.163 16 16z"></path>
<path fill="#fff" style="fill: var(--color3, #fff)" d="M9.333 9.239c0-0.684 0.537-1.239 1.2-1.239h9.6c0.664 0 1.2 0.555 1.2 1.239s-0.536 1.239-1.2 1.239h-2.107c0.36 0.557 0.626 1.185 0.772 1.858h1.335c0.664 0 1.2 0.554 1.2 1.239s-0.536 1.239-1.2 1.239h-1.335c-0.495 2.257-2.321 3.995-4.579 4.293l5.411 3.957c0.506 0.43 0.664 1.204 0.277 1.761-0.382 0.523-1.132 0.685-1.672 0.287l-8.4-6.194c-0.424-0.345-0.604-0.871-0.445-1.386 0.159-0.546 0.621-0.859 1.143-0.859h3c1.23 0 2.287-0.763 2.749-1.858h-5.749c-0.663 0-1.2-0.554-1.2-1.239s0.537-1.239 1.2-1.239h5.749c-0.461-1.096-1.519-1.858-2.749-1.858h-3c-0.663 0-1.2-0.555-1.2-1.239z"></path>
</symbol>
<symbol id="icon-algo" viewBox="0 0 32 32">
<path fill="#000" style="fill: var(--color2, #000)" d="M32 16c0 8.837-7.163 16-16 16s-16-7.163-16-16c0-8.837 7.163-16 16-16s16 7.163 16 16z"></path>
<path fill="#fff" style="fill: var(--color3, #fff)" d="M10.25 22.916l2.303-3.986 2.301-3.972 2.288-3.986 0.38-0.632 0.167 0.632 0.702 2.624-0.786 1.362-2.301 3.972-2.288 3.986h2.75l3.495-6.049 0.562 2.063 1.066 3.986h2.47l-1.066-3.986-1.067-3.972-0.28-1.025 1.712-2.961h-2.498l-0.085-0.295-0.87-3.256-0.112-0.421h-2.4l-0.056 0.084-4.548 7.874-2.287 3.972-2.302 3.986z"></path>
</symbol>
<symbol id="icon-atom" viewBox="0 0 32 32">
<path fill="#2e3148" style="fill: var(--color11, #2e3148)" d="M32 16c0 8.837-7.163 16-16 16s-16-7.163-16-16c0-8.837 7.163-16 16-16s16 7.163 16 16z"></path>
<path fill="#fff" style="fill: var(--color3, #fff)" d="M16.020 5.53c-1.295 0-2.345 4.697-2.345 10.49s1.050 10.49 2.345 10.49c1.294 0 2.344-4.697 2.344-10.49s-1.050-10.49-2.344-10.49zM16.182 25.917c-0.148 0.198-0.297 0.050-0.297 0.050-0.596-0.692-0.894-1.975-0.894-1.975-1.043-3.357-0.795-10.564-0.795-10.564 0.49-5.721 1.382-7.073 1.685-7.373 0.033-0.033 0.079-0.054 0.13-0.054 0.040 0 0.078 0.013 0.108 0.035l-0.001-0c0.44 0.313 0.81 1.617 0.81 1.617 1.090 4.048 0.991 7.848 0.991 7.848 0.099 3.308-0.546 7.010-0.546 7.010-0.497 2.814-1.192 3.406-1.192 3.406z"></path>
<path fill="#fff" style="fill: var(--color3, #fff)" d="M25.118 10.8c-0.645-1.124-5.24 0.303-10.267 3.186s-8.573 6.13-7.93 7.254c0.645 1.124 5.241-0.303 10.268-3.186s8.574-6.131 7.93-7.254zM7.515 21.085c-0.246-0.030-0.19-0.234-0.19-0.234 0.302-0.86 1.266-1.758 1.266-1.758 2.393-2.575 8.769-5.946 8.769-5.946 5.206-2.422 6.823-2.32 7.233-2.208 0.079 0.022 0.136 0.094 0.136 0.178 0 0.007-0 0.014-0.001 0.020l0-0.001c-0.050 0.537-1 1.507-1 1.507-2.966 2.961-6.312 4.768-6.312 4.768-2.82 1.732-6.353 3.013-6.353 3.013-2.688 0.968-3.548 0.66-3.548 0.66z"></path>
<path fill="#fff" style="fill: var(--color3, #fff)" d="M25.095 21.277c0.65-1.12-2.887-4.383-7.898-7.288-5.010-2.904-9.604-4.348-10.253-3.226s2.888 4.383 7.9 7.288c5.013 2.904 9.602 4.348 10.251 3.226zM7.375 11.196c-0.097-0.228 0.106-0.283 0.106-0.283 0.897-0.17 2.157 0.217 2.157 0.217 3.427 0.78 9.538 4.608 9.538 4.608 4.705 3.292 5.427 4.743 5.535 5.154 0.004 0.014 0.006 0.030 0.006 0.046 0 0.075-0.044 0.139-0.108 0.168l-0.001 0c-0.49 0.225-1.805-0.11-1.805-0.11-4.050-1.086-7.289-3.075-7.289-3.075-2.91-1.57-5.788-3.985-5.788-3.985-2.187-1.842-2.35-2.74-2.35-2.74l-0.002-0.001z"></path>
<path fill="#fff" style="fill: var(--color3, #fff)" d="M17.229 15.995c0 0.682-0.552 1.234-1.234 1.234s-1.234-0.552-1.234-1.234c0-0.682 0.552-1.234 1.234-1.234s1.234 0.552 1.234 1.234z"></path>
<path fill="#fff" style="fill: var(--color3, #fff)" d="M22.055 11.256c0 0.552-0.448 1-1 1s-1-0.448-1-1c0-0.552 0.448-1 1-1s1 0.448 1 1z"></path>
<path fill="#fff" style="fill: var(--color3, #fff)" d="M10.306 13.774c0 0.552-0.448 1-1 1s-1-0.448-1-1c0-0.552 0.448-1 1-1s1 0.448 1 1z"></path>
<path fill="#fff" style="fill: var(--color3, #fff)" d="M15.539 22.856c0 0.552-0.448 1-1 1s-1-0.448-1-1c0-0.552 0.448-1 1-1s1 0.448 1 1z"></path>
</symbol>
<symbol id="icon-bch" viewBox="0 0 32 32">
<path fill="#8dc351" style="fill: var(--color12, #8dc351)" d="M32 16c0 8.837-7.163 16-16 16s-16-7.163-16-16c0-8.837 7.163-16 16-16s16 7.163 16 16z"></path>
<path fill="#fff" style="fill: var(--color3, #fff)" d="M21.207 10.534c-0.776-1.972-2.722-2.15-4.988-1.71l-0.807-2.813-1.712 0.491 0.786 2.74c-0.45 0.128-0.908 0.27-1.363 0.41l-0.79-2.758-1.711 0.49 0.805 2.813c-0.368 0.114-0.73 0.226-1.085 0.328l-0.003-0.010-2.362 0.677 0.525 1.83s1.258-0.388 1.243-0.358c0.694-0.199 1.035 0.139 1.2 0.468l0.92 3.204c0.047-0.013 0.11-0.029 0.184-0.040l-0.181 0.052 1.287 4.49c0.032 0.227 0.004 0.612-0.48 0.752 0.027 0.013-1.246 0.356-1.246 0.356l0.247 2.143 2.228-0.64c0.415-0.117 0.825-0.227 1.226-0.34l0.817 2.845 1.71-0.49-0.807-2.815c0.922-0.233 1.38-0.363 1.837-0.498l-0.465 0.118 0.802 2.803 1.713-0.491-0.814-2.84c2.831-0.991 4.638-2.294 4.113-5.070-0.422-2.234-1.724-2.912-3.471-2.836 0.848-0.79 1.213-1.858 0.642-3.3zM20.557 17.304c0.61 2.127-3.1 2.929-4.26 3.263l-1.081-3.77c1.16-0.333 4.704-1.71 5.34 0.508zM18.235 12.214c0.554 1.935-2.547 2.58-3.514 2.857l-0.98-3.419c0.966-0.277 3.915-1.455 4.494 0.563z"></path>
</symbol>
<symbol id="icon-bnb" viewBox="0 0 32 32">
<path fill="#f3ba2f" style="fill: var(--color13, #f3ba2f)" d="M32 16c0 8.837-7.163 16-16 16s-16-7.163-16-16c0-8.837 7.163-16 16-16s16 7.163 16 16z"></path>
<path fill="#fff" style="fill: var(--color3, #fff)" d="M12.116 14.404l3.884-3.884 3.886 3.886 2.26-2.26-6.146-6.146-6.144 6.144 2.26 2.26zM6 16l2.26-2.26 2.26 2.26-2.26 2.26-2.26-2.26zM12.116 17.596l3.884 3.884 3.886-3.886 2.26 2.259-6.146 6.147-6.147-6.147 2.263-2.257zM21.48 16l2.26-2.26 2.26 2.26-2.26 2.26-2.26-2.26zM18.292 15.998h0.002v0.002l-2.294 2.294-2.295-2.294 0.004-0.003 0.596-0.597 1.695-1.694 2.293 2.293z"></path>
</symbol>
<symbol id="icon-btc" viewBox="0 0 32 32">
<path fill="#f7931a" style="fill: var(--color14, #f7931a)" d="M32 16c0 8.837-7.163 16-16 16s-16-7.163-16-16c0-8.837 7.163-16 16-16s16 7.163 16 16z"></path>
<path fill="#fff" style="fill: var(--color3, #fff)" d="M23.189 14.020c0.314-2.096-1.283-3.223-3.465-3.975l0.708-2.84-1.728-0.43-0.69 2.765c-0.454-0.114-0.92-0.22-1.385-0.326l0.695-2.783-1.728-0.431-0.708 2.839c-0.376-0.086-0.746-0.17-1.104-0.26l0.002-0.009-2.384-0.595-0.46 1.846s1.283 0.294 1.256 0.312c0.7 0.175 0.826 0.638 0.805 1.006l-0.806 3.235c0.048 0.012 0.11 0.030 0.18 0.057l-0.183-0.045-1.13 4.532c-0.086 0.212-0.303 0.531-0.793 0.41 0.018 0.025-1.256-0.313-1.256-0.313l-0.858 1.978 2.25 0.561c0.418 0.105 0.828 0.215 1.231 0.318l-0.715 2.872 1.727 0.43 0.708-2.84c0.472 0.127 0.93 0.245 1.378 0.357l-0.706 2.828 1.728 0.43 0.715-2.866c2.948 0.558 5.164 0.333 6.097-2.333 0.752-2.146-0.037-3.385-1.588-4.192 1.13-0.26 1.98-1.003 2.207-2.538zM19.239 19.558c-0.533 2.147-4.148 0.986-5.32 0.695l0.95-3.805c1.172 0.293 4.929 0.872 4.37 3.11zM19.774 13.989c-0.487 1.953-3.495 0.96-4.47 0.717l0.86-3.45c0.975 0.243 4.118 0.696 3.61 2.733z"></path>
</symbol>
<symbol id="icon-busd" viewBox="0 0 32 32">
<path fill="#f0b90b" style="fill: var(--color15, #f0b90b)" d="M15.952 0.067l3.936 4.031-9.911 9.911-3.936-3.936zM21.926 6.042l3.936 4.031-15.885 15.885-3.936-3.936zM4.002 12.017l3.936 4.031-3.936 3.936-3.936-3.936zM27.901 12.017l3.936 4.031-15.885 15.885-3.936-3.936z"></path>
</symbol>
<symbol id="icon-doge" viewBox="0 0 32 32">
<path fill="#c3a634" style="fill: var(--color16, #c3a634)" d="M32 16c0 8.837-7.163 16-16 16s-16-7.163-16-16c0-8.837 7.163-16 16-16s16 7.163 16 16z"></path>
<path fill="#fff" style="fill: var(--color3, #fff)" d="M13.248 14.61h4.314v2.286h-4.314v4.818h2.721c1.077 0 1.958-0.145 2.644-0.437 0.686-0.291 1.224-0.694 1.615-1.21 0.384-0.51 0.663-1.122 0.792-1.787l0.004-0.028c0.134-0.655 0.21-1.408 0.21-2.179 0-0.026-0-0.051-0-0.077l0 0.004c0-0.022 0-0.047 0-0.073 0-0.771-0.077-1.524-0.222-2.252l0.012 0.073c-0.133-0.693-0.412-1.305-0.804-1.826l0.008 0.011c-0.391-0.516-0.93-0.919-1.615-1.21-0.686-0.292-1.567-0.437-2.644-0.437h-2.721v4.325zM10.482 16.896h-1.482v-2.285h1.482v-6.611h6.549c1.21 0 2.257 0.21 3.142 0.627 0.885 0.419 1.607 0.99 2.168 1.715 0.56 0.724 0.977 1.572 1.25 2.543s0.409 2.010 0.409 3.115c0 0.022 0 0.049 0 0.075 0 1.082-0.15 2.129-0.43 3.121l0.019-0.081c-0.272 0.97-0.689 1.819-1.25 2.543-0.56 0.725-1.282 1.296-2.167 1.715-0.885 0.418-1.933 0.627-3.142 0.627h-6.549v-7.104z"></path>
</symbol>
<symbol id="icon-eth" viewBox="0 0 32 32">
<path fill="#627eea" style="fill: var(--color17, #627eea)" d="M32 16c0 8.837-7.163 16-16 16s-16-7.163-16-16c0-8.837 7.163-16 16-16s16 7.163 16 16z"></path>
<path fill="#fff" style="fill: var(--color3, #fff)" opacity="0.602" d="M16.498 4v8.87l7.497 3.35z"></path>
<path fill="#fff" style="fill: var(--color3, #fff)" d="M16.498 4l-7.498 12.22 7.498-3.35z"></path>
<path fill="#fff" style="fill: var(--color3, #fff)" opacity="0.602" d="M16.498 21.968v6.027l7.502-10.379z"></path>
<path fill="#fff" style="fill: var(--color3, #fff)" d="M16.498 27.995v-6.028l-7.498-4.351z"></path>
<path fill="#fff" style="fill: var(--color3, #fff)" opacity="0.2" d="M16.498 20.573l7.497-4.353-7.497-3.348z"></path>
<path fill="#fff" style="fill: var(--color3, #fff)" opacity="0.602" d="M9 16.22l7.498 4.353v-7.701z"></path>
</symbol>
<symbol id="icon-gala" viewBox="0 0 28 32">
<path d="M0 23.675c0.389 0.206 0.899 0.522 1.263 0.765 0.134 0.091 0.285 0.17 0.431 0.261 0.079 0.049 0.127 0.073 0.2 0.121 0.036 0.024 0.067 0.049 0.103 0.067l0.109 0.061 4.676 2.878c0.067 0.036 0.128 0.079 0.2 0.121l4.244 2.617c0.049 0.030 0.067 0.036 0.109 0.067l2.028 1.245c0.091 0.049 0.127 0.109 0.231 0.115v-15.848l-0.644-0.37c-0.061-0.030-0.097-0.055-0.158-0.091l-0.504-0.291c-0.716-0.376-1.384-0.838-2.107-1.214-0.073-0.036-0.097-0.061-0.176-0.097l-0.644-0.37c-0.158-0.097-0.874-0.528-1.002-0.559v2.502l2.824 1.633c0.073 0.036 0.109 0.079 0.2 0.097v10.729c-0.461-0.31-0.953-0.589-1.427-0.874l-1.148-0.71c-0.468-0.316-0.972-0.577-1.439-0.887-0.055-0.036-0.085-0.049-0.14-0.085l-1.014-0.625c-0.109-0.061-0.188-0.109-0.291-0.182-0.37-0.249-0.771-0.468-1.148-0.71-0.103-0.067-0.188-0.109-0.291-0.176-0.559-0.376-1.16-0.716-1.731-1.063-0.055-0.035-0.098-0.065-0.141-0.096l0.007 0.005-0.443-0.273v-12.879c-0.085-0.055-0.17-0.103-0.267-0.158-0.119-0.066-0.206-0.118-0.292-0.173l0.025 0.015-1.366-0.777c-0.103-0.055-0.182-0.115-0.279-0.164v15.375zM14.907 16.121v6.090l0.808-0.455c0.37-0.194 0.71-0.431 1.081-0.625 0.067-0.036 0.091-0.049 0.14-0.085 0.049-0.030 0.097-0.049 0.146-0.073v-3.589c0.073-0.018 0.097-0.030 0.152-0.067s0.091-0.049 0.146-0.079c0.285-0.164 0.565-0.358 0.856-0.504 0.395-0.194 0.771-0.437 1.148-0.662 0.097-0.055 0.176-0.103 0.279-0.164l0.571-0.322 0.14-0.085c0.249-0.127 0.48-0.298 0.735-0.431l0.279-0.164c0.049-0.030 0.097-0.049 0.146-0.073l1.864-1.081c0.395-0.206 0.759-0.455 1.148-0.662l1.154-0.68c0.103-0.061 0.188-0.103 0.279-0.164l0.304-0.17v10.389c-0.085 0.018-0.109 0.049-0.182 0.091l-0.534 0.328-0.164 0.109c-0.073 0.043-0.121 0.079-0.182 0.115-0.067 0.036-0.103 0.067-0.17 0.103l-0.54 0.322c-0.486 0.279-0.941 0.595-1.427 0.874l-1.421 0.88c-0.067 0.043-0.103 0.061-0.17 0.103-0.638 0.431-1.318 0.789-1.961 1.208-0.115 0.079-0.237 0.146-0.352 0.219l-1.779 1.093c-0.055 0.030-0.115 0.067-0.17 0.103-0.528 0.346-1.081 0.644-1.609 0.99l-0.723 0.443v2.55c0.121-0.030 0.316-0.176 0.425-0.243 0.146-0.091 0.285-0.164 0.431-0.261 0.407-0.273 0.85-0.498 1.257-0.771 0.079-0.049 0.14-0.091 0.213-0.134l1.075-0.662c0.073-0.043 0.128-0.079 0.2-0.121l9.752-6.005c0.073-0.049 0.146-0.091 0.219-0.128v-15.35c-0.109 0.024-0.128 0.061-0.213 0.109-0.079 0.043-0.134 0.073-0.206 0.115l-1.269 0.735c-0.431 0.231-0.832 0.516-1.269 0.735l-3.394 1.955c-0.152 0.085-0.273 0.164-0.419 0.249l-0.625 0.364c-0.443 0.225-1.087 0.607-1.494 0.862-0.073 0.049-0.134 0.067-0.206 0.115l-1.378 0.802c-0.061 0.030-0.049 0.030-0.109 0.067l-0.431 0.237c-0.255 0.134-0.48 0.298-0.735 0.431-0.061 0.030-0.061 0.043-0.109 0.067l-0.431 0.237c-0.285 0.14-1.038 0.668-1.269 0.717v0zM0.844 7.28c0.085 0.018 0.134 0.067 0.213 0.109 0.285 0.152 0.54 0.334 0.832 0.48l2.307 1.336c1.099 0.668 2.241 1.263 3.346 1.931l0.206 0.115c0.079 0.043 0.134 0.079 0.206 0.115l1.257 0.729c0.055 0.030 0.049 0.030 0.091 0.055 0.589 0.358 1.208 0.662 1.791 1.032l1.87 1.075c0.073 0.043 0.127 0.079 0.2 0.121 0.219 0.134 1.002 0.607 1.081 0.607 0.115 0 0.783-0.425 0.953-0.528l0.328-0.194c0.109-0.067 0.206-0.109 0.316-0.176l0.316-0.182 0.638-0.376c0.109-0.067 0.206-0.115 0.31-0.182l0.965-0.546c0.061-0.030 0.103-0.061 0.158-0.091 0.055-0.036 0.091-0.055 0.158-0.091l0.644-0.37c0.103-0.061 0.219-0.152 0.34-0.182-0.018-0.073-0.030-0.067-0.091-0.103l-2.058-1.184c-0.82 0.431-1.597 0.935-2.411 1.378-0.067 0.036-0.121 0.073-0.182 0.115-0.127 0.079-0.243 0.146-0.376 0.219l-1.239-0.716c-0.431-0.219-0.826-0.504-1.257-0.729-0.097-0.055-0.194-0.115-0.279-0.164l-2.514-1.445-0.14-0.085c-0.055-0.036-0.091-0.049-0.146-0.079l-3.218-1.858c-0.061-0.036-0.067-0.055-0.152-0.073 0.067-0.097 0.146-0.103 0.255-0.17 0.091-0.061 0.176-0.091 0.273-0.146l2.799-1.512c0.061-0.036 0.061-0.043 0.121-0.073s0.091-0.043 0.146-0.079c0.097-0.061 0.194-0.103 0.291-0.152l3.491-1.882c0.061-0.030 0.079-0.049 0.14-0.085l1.421-0.759c0.079 0 1.154 0.625 1.403 0.753 0.061 0.030 0.103 0.049 0.164 0.085 0.073 0.042 0.091 0.061 0.176 0.097l3.862 2.083c0.34 0.213 1.372 0.753 1.737 0.935 0.413 0.206 0.808 0.455 1.221 0.662l2.295 1.245c0.079 0.043 0.103 0.055 0.176 0.097 0.273 0.164 0.279 0.024 0.723-0.219l0.82-0.468c0.146-0.079 0.698-0.431 0.826-0.461-0.024-0.079-0.097-0.109-0.17-0.152l-0.832-0.455c-0.419-0.213-0.838-0.474-1.257-0.674l-0.832-0.455c-0.285-0.146-0.571-0.279-0.838-0.449l-4.196-2.265c-0.085-0.042-0.134-0.067-0.206-0.115l-1.688-0.911c-0.079-0.042-0.128-0.073-0.206-0.115-0.043-0.024-0.061-0.030-0.097-0.049l-2.216-1.202c-0.14-0.085-0.789-0.449-0.868-0.449-0.067 0-0.534 0.279-0.638 0.328l-4.803 2.599c-0.079 0.036-0.14 0.067-0.213 0.109l-3.364 1.816c-0.079 0.043-0.115 0.073-0.206 0.115l-0.304 0.164c-0.061 0.030-0.061 0.043-0.109 0.067-0.067 0.043-0.14 0.061-0.213 0.109l-0.644 0.346c-0.085 0.043-0.127 0.079-0.206 0.115l-0.978 0.534c-0.036 0.018-0.036 0.012-0.067 0.030-0.14 0.079-0.285 0.134-0.419 0.225-0.079 0.049-0.127 0.067-0.213 0.109l-0.941 0.522c-0.073 0.043-0.055 0.006-0.079 0.091v0z"></path>
</symbol>
<symbol id="icon-link" viewBox="0 0 32 32">
<path fill="#2a5ada" style="fill: var(--color18, #2a5ada)" d="M32 16c0 8.837-7.163 16-16 16s-16-7.163-16-16c0-8.837 7.163-16 16-16s16 7.163 16 16z"></path>
<path fill="#fff" style="fill: var(--color3, #fff)" d="M16 6l-1.799 1.055-6.701 3.945v10l1.799 1.055 6.746 3.945 1.799-1.055 4.857-2.89 1.799-1.055v-10l-1.799-1.055-6.701-3.945zM11.098 18.89v-5.78l4.902-2.89 4.902 2.89v5.78l-4.902 2.89-4.902-2.89z"></path>
</symbol>
<symbol id="icon-ltc" viewBox="0 0 32 32">
<path fill="#bfbbbb" style="fill: var(--color19, #bfbbbb)" d="M32 16c0 8.837-7.163 16-16 16s-16-7.163-16-16c0-8.837 7.163-16 16-16s16 7.163 16 16z"></path>
<path fill="#fff" style="fill: var(--color3, #fff)" d="M10.427 19.214l-1.427 0.554 0.688-2.759 1.444-0.58 2.081-8.429h5.129l-1.519 6.196 1.41-0.571-0.68 2.75-1.427 0.571-0.848 3.483h7.722l-0.873 3.571h-12.875z"></path>
</symbol>
<symbol id="icon-luna" viewBox="0 0 32 32">
<path fill="#172852" style="fill: var(--color20, #172852)" d="M32 16c0 8.837-7.163 16-16 16s-16-7.163-16-16c0-8.837 7.163-16 16-16s16 7.163 16 16z"></path>
<path fill="#ffd83d" style="fill: var(--color21, #ffd83d)" d="M12.888 7.15c1.874-0.701 3.982-0.702 5.891-0.126 2.485 0.771 4.582 2.646 5.678 5 0.302 0.67 0.592 1.37 0.621 2.115-1.397-0.81-2.928-1.334-4.462-1.813-2.454-0.885-5.024-1.499-7.347-2.715-0.541-0.323-1.23-0.654-1.378-1.328-0.059-0.582 0.557-0.907 0.997-1.133zM7.232 12.814c0.542-1.472 1.432-2.838 2.64-3.851 0.307 2.526 1.382 4.968 3.158 6.805 2.13 2.213 5.163 3.571 8.25 3.52 1.226 0.038 2.424-0.245 3.619-0.474-1.176 4.25-5.834 7.070-10.149 6.392-2.605-0.333-5.010-1.875-6.461-4.053-1.637-2.406-2.050-5.602-1.058-8.339z"></path>
<path fill="#ff6f03" style="fill: var(--color22, #ff6f03)" d="M20.616 12.326c1.534 0.478 3.066 1.003 4.462 1.813l0.094 0.050c0.13 0.974 0.224 1.968 0.051 2.944-0.702-0.298-1.272-0.821-1.867-1.283-1.146-0.954-2.315-2.045-2.741-3.523z"></path>
</symbol>
<symbol id="icon-mana" viewBox="0 0 32 32">
<path fill="#ff2d55" style="fill: var(--color23, #ff2d55)" d="M32 16c0 8.837-7.163 16-16 16s-16-7.163-16-16c0-8.837 7.163-16 16-16s16 7.163 16 16z"></path>
<path fill="#16141a" style="fill: var(--color24, #16141a)" d="M12.793 11.534l-7.045 8.454c-0.473-1.177-0.748-2.542-0.748-3.971 0-0.006 0-0.012 0-0.018v0.001c0-6.077 4.923-11 11-11s11 4.923 11 11c0 3.36-1.507 6.369-3.883 8.387h-14.234c-0.623-0.536-1.175-1.121-1.663-1.759l-0.020-0.028h12.562v-4.763l3.965 4.763h1.073l-5.043-6.050-1.392 1.672-5.571-6.688zM19.758 9.4c-1.487 0.041-2.677 1.257-2.677 2.75s1.19 2.709 2.673 2.75l0.004 0c1.487-0.041 2.677-1.257 2.677-2.75s-1.19-2.709-2.673-2.75l-0.004-0zM12.795 7.409c-0.011-0-0.024-0-0.037-0-0.76 0-1.376 0.616-1.376 1.376s0.616 1.376 1.376 1.376c0.013 0 0.026-0 0.039-0.001l-0.002 0c0.744-0.021 1.339-0.629 1.339-1.376s-0.595-1.355-1.337-1.375l-0.002-0zM9.989 25.212h12.023c-1.692 1.121-3.769 1.788-6.003 1.788-0.003 0-0.007 0-0.010 0h0.001c-0.002 0-0.005 0-0.008 0-2.233 0-4.311-0.667-6.044-1.813l0.041 0.025zM17.832 18.866l-2.426 2.909h-8.767c-0.32-0.509-0.619-1.097-0.865-1.712l-0.026-0.075h7.046v-7.168l5.038 6.045z"></path>
</symbol>
<symbol id="icon-matic" viewBox="0 0 32 32">
<path fill="#6f41d8" style="fill: var(--color25, #6f41d8)" d="M32 16c0 8.837-7.163 16-16 16s-16-7.163-16-16c0-8.837 7.163-16 16-16s16 7.163 16 16z"></path>
<path fill="#fff" style="fill: var(--color3, #fff)" d="M21.092 12.693c-0.369-0.215-0.848-0.215-1.254 0l-2.879 1.654-1.955 1.078-2.879 1.653c-0.369 0.216-0.848 0.216-1.254 0l-2.288-1.294c-0.369-0.215-0.627-0.61-0.627-1.042v-2.552c0-0.431 0.221-0.826 0.627-1.042l2.25-1.258c0.37-0.216 0.85-0.216 1.256 0l2.25 1.258c0.37 0.216 0.628 0.611 0.628 1.042v1.654l1.955-1.115v-1.653c0-0.003 0-0.008 0-0.012 0-0.446-0.252-0.833-0.621-1.027l-0.006-0.003-4.17-2.372c-0.369-0.216-0.848-0.216-1.254 0l-4.244 2.372c-0.375 0.197-0.627 0.584-0.627 1.030 0 0.004 0 0.008 0 0.012v-0.001 4.78c0 0.432 0.221 0.827 0.627 1.043l4.244 2.372c0.369 0.215 0.849 0.215 1.254 0l2.879-1.618 1.955-1.114 2.879-1.617c0.369-0.216 0.848-0.216 1.254 0l2.251 1.258c0.37 0.215 0.627 0.61 0.627 1.042v2.552c0 0.431-0.22 0.826-0.627 1.042l-2.25 1.294c-0.37 0.216-0.85 0.216-1.255 0l-2.251-1.258c-0.37-0.216-0.628-0.611-0.628-1.042v-1.654l-1.955 1.115v1.653c0 0.431 0.221 0.827 0.627 1.042l4.244 2.372c0.369 0.216 0.848 0.216 1.254 0l4.244-2.372c0.369-0.215 0.627-0.61 0.627-1.042v-4.78c0-0.003 0-0.008 0-0.012 0-0.446-0.252-0.833-0.621-1.027l-0.006-0.003-4.28-2.409z"></path>
</symbol>
<symbol id="icon-near" viewBox="0 0 32 32">
<path d="M25.671 1.636l-6.684 9.92c-0.462 0.676 0.427 1.493 1.067 0.924l6.578-5.724c0.178-0.142 0.427-0.036 0.427 0.213v17.884c0 0.249-0.32 0.356-0.462 0.178l-19.911-23.822c-0.64-0.782-1.564-1.209-2.596-1.209h-0.711c-1.849 0-3.378 1.529-3.378 3.413v25.173c0 1.884 1.529 3.413 3.413 3.413 1.173 0 2.276-0.604 2.916-1.636l6.684-9.92c0.462-0.676-0.427-1.493-1.067-0.924l-6.578 5.689c-0.178 0.142-0.427 0.036-0.427-0.213v-17.849c0-0.249 0.32-0.356 0.462-0.178l19.911 23.822c0.64 0.782 1.6 1.209 2.596 1.209h0.711c1.884 0 3.413-1.529 3.413-3.413v-25.173c0-1.884-1.529-3.413-3.413-3.413-1.209 0-2.311 0.604-2.951 1.636z"></path>
</symbol>
<symbol id="icon-sand" viewBox="0 0 32 32">
<path fill="#04adef" style="fill: var(--color26, #04adef)" d="M32 16c0 8.837-7.163 16-16 16s-16-7.163-16-16c0-8.837 7.163-16 16-16s16 7.163 16 16z"></path>
<path fill="#fff" style="fill: var(--color3, #fff)" d="M10.75 7.067l-1.75 1.8v7.133l1.75 1.8h6.935v3.6h-3.435v-1.8h-5.25v3.6l1.75 1.8h10.435l1.75-1.8v-7.2l-1.75-1.8h-6.935v-3.6h3.5v1.8h5.25v-3.6l-1.75-1.8h-10.5z"></path>
</symbol>
<symbol id="icon-shib" viewBox="0 0 32 32">
<path fill="#f00500" style="fill: var(--color27, #f00500)" d="M23.167 2.815c-0.823 0.823-1.578 1.716-2.248 2.667l-0.212-0.069c-1.223-0.399-2.49-0.646-3.767-0.73-0.385-0.030-1.819-0.030-2.288 0-1.415 0.094-2.5 0.306-3.732 0.735-0.049 0.020-0.094 0.035-0.138 0.049-0.695-0.947-1.469-1.834-2.322-2.648 4.092-2.096 8.88-2.347 13.165-0.695 0.459 0.173 0.907 0.375 1.346 0.592l0.197 0.099zM30.799 21.517c-0.621 1.77-1.553 3.412-2.761 4.842-0.656 0.769-1.381 1.474-2.16 2.115-1.824 1.469-3.954 2.52-6.227 3.072-2.515 0.606-5.138 0.606-7.652 0-2.278-0.552-4.403-1.602-6.227-3.072-0.779-0.641-1.504-1.346-2.16-2.115-3.476-4.107-4.531-9.748-2.761-14.831 0.335-0.942 0.754-1.849 1.257-2.712 0.232-0.394 0.518-0.838 0.656-1.021 0.473 2.036 1.055 3.826 1.272 4.472-0.019 0.044-0.037 0.079-0.057 0.114l0.003-0.005c-1.149 2.327-1.77 4.571-1.918 6.957 0 0.030-0.005 0.064-0.005 0.094-0.039 0.715-0.020 1.055 0.099 1.504 0.37 1.405 1.509 2.953 3.294 4.472 2.924 2.485 6.888 4.28 9.891 4.487 3.131 0.212 7.751-1.617 10.828-4.29 0.483-0.429 0.937-0.883 1.361-1.366 0.306-0.355 0.759-0.966 0.725-0.966-0.010 0 0-0.010 0.020-0.020 0.015-0.010 0.030-0.025 0.020-0.035-0.005-0.005 0.005-0.020 0.020-0.025s0.025-0.015 0.020-0.025 0-0.020 0.020-0.025 0.020-0.020 0.015-0.030 0-0.020 0.010-0.020 0.020-0.015 0.020-0.025 0.010-0.025 0.020-0.025 0.020-0.010 0.020-0.020c0.015-0.039 0.039-0.079 0.064-0.113 0.074-0.113 0.37-0.641 0.409-0.73 0.281-0.636 0.459-1.203 0.542-1.77 0.039-0.271 0.064-0.769 0.044-0.888-0.005-0.020-0.005-0.054-0.010-0.108-0.010-0.099-0.015-0.247-0.025-0.394-0.010-0.222-0.030-0.532-0.044-0.685-0.212-2.239-0.784-4.068-1.869-6.006-0.044-0.074-0.084-0.148-0.108-0.207-0.010-0.015-0.015-0.030-0.020-0.039v0c0.153-0.459 0.779-2.377 1.277-4.571l0.010 0.010 0.074 0.099c0.128 0.173 0.468 0.685 0.621 0.932 0.695 1.134 1.238 2.352 1.622 3.624 0.892 3.062 0.819 6.326-0.227 9.344z"></path>
<path fill="#000" style="fill: var(--color2, #000)" d="M24.399 15.625c-0.015 0.079-0.247 0.316-0.478 0.488-0.68 0.498-1.898 0.961-3.136 1.183-0.705 0.128-1.41 0.148-1.622 0.044-0.138-0.069-0.158-0.123-0.108-0.301 0.104-0.37 0.439-0.774 0.961-1.154 0.266-0.192 1.346-0.848 1.849-1.124 0.828-0.454 1.499-0.725 1.953-0.789 0.143-0.020 0.316-0.025 0.37 0 0.089 0.034 0.187 0.296 0.227 0.611 0.020 0.168 0.010 0.907-0.015 1.040zM12.783 17.257c-0.030 0.059-0.178 0.123-0.345 0.148s-0.68 0.010-0.971-0.025c-1.045-0.138-2.155-0.459-2.963-0.853-0.454-0.222-0.779-0.444-1.021-0.685l-0.138-0.143-0.015-0.187c-0.025-0.325-0.020-0.838 0.020-1.021 0.025-0.153 0.079-0.301 0.153-0.434 0.039-0.049 0.039-0.049 0.217-0.049 0.217 0 0.399 0.034 0.695 0.128 0.606 0.187 1.509 0.641 2.608 1.302 0.907 0.542 1.247 0.809 1.509 1.173 0.178 0.227 0.296 0.547 0.251 0.646zM19.765 24.121c0 0.015-0.059 0.251-0.133 0.532l-0.133 0.518c-0.054 0.005-0.104 0.010-0.158 0.005h-0.158l-0.217 0.513-0.242 0.582-0.030 0.069-0.207-0.335v-1.366l-0.039 0.010c-0.084 0.020-0.68 0.099-0.942 0.123-1.080 0.108-2.165 0.084-3.239-0.069-0.173-0.025-0.32-0.044-0.325-0.039s0 0.32 0.010 0.71l0.015 0.7-0.084 0.128c-0.044 0.069-0.089 0.128-0.089 0.133-0.015 0.015-0.064-0.064-0.178-0.291-0.123-0.237-0.212-0.488-0.276-0.749l-0.034-0.143-0.153 0.010-0.153 0.015-0.039-0.182c-0.020-0.099-0.044-0.251-0.054-0.335l-0.015-0.158-0.128-0.113-0.163-0.138c-0.025-0.020-0.034-0.054-0.034-0.084v-0.059l1.233 0.010 0.039 0.128 0.212 0.010 0.828 0.025 0.616 0.015 0.158-0.247 0.163-0.247h0.207l-0.010-1.026-0.271-0.118c-0.873-0.385-1.386-0.823-1.578-1.356-0.039-0.108-0.039-0.148-0.049-0.641-0.005-0.488-0.005-0.532 0.030-0.641 0.069-0.247 0.261-0.439 0.508-0.503 0.084-0.025 0.306-0.025 1.469-0.025l1.371 0.005 0.153 0.074c0.182 0.089 0.266 0.153 0.37 0.291 0.118 0.158 0.153 0.281 0.153 0.582 0 0.429-0.030 0.799-0.074 0.947-0.064 0.202-0.163 0.394-0.286 0.567-0.247 0.316-0.695 0.631-1.104 0.774l-0.118 0.044 0.010 1.035 0.217 0.020 0.148 0.222 0.143 0.222h0.661l0.715 0.010c0.049 0.010 0.059 0.005 0.108-0.079l0.059-0.089h0.567c0.424-0.020 0.552-0.010 0.552 0.005zM17.161 25.536c-0.094 0.054-0.158 0.079-0.173 0.069-0.015-0.005-0.084-0.064-0.158-0.118l-0.133-0.108-0.138 0.148c-0.301 0.325-0.311 0.34-0.399 0.345-0.138 0.015-0.168-0.010-0.335-0.261-0.089-0.128-0.158-0.237-0.158-0.237s-0.064-0.010-0.138-0.015l-0.138-0.015-0.128 0.266-0.113-0.035c-0.089-0.030-0.178-0.064-0.261-0.104l-0.148-0.074v-0.281l2.623 0.010 0.005 0.133c0.005 0.158 0.010 0.153-0.207 0.276z"></path>
<path fill="#fff" style="fill: var(--color3, #fff)" d="M29.488 19.52c-0.005-0.020-0.005-0.054-0.010-0.108-1.183-0.128-4.561-0.207-7.697 2.381 0 0-1.011-4.635-5.744-4.635s-6.489 4.635-6.489 4.635c-2.653-2.855-6.203-2.648-7.485-2.46 0 0.030-0.005 0.064-0.005 0.094-0.039 0.715-0.020 1.055 0.099 1.504 0.37 1.405 1.509 2.953 3.294 4.472 2.924 2.485 6.888 4.28 9.891 4.487 3.131 0.212 7.751-1.617 10.828-4.29 0.483-0.429 0.937-0.883 1.361-1.366 0.306-0.355 0.759-0.966 0.725-0.966-0.010 0 0-0.010 0.020-0.020 0.015-0.010 0.030-0.025 0.020-0.035-0.005-0.005 0.005-0.020 0.020-0.025s0.025-0.015 0.020-0.025 0-0.020 0.020-0.025 0.020-0.020 0.015-0.030 0-0.020 0.010-0.020 0.020-0.015 0.020-0.025 0.010-0.025 0.020-0.025 0.020-0.010 0.020-0.020c0.015-0.039 0.039-0.079 0.064-0.113 0.074-0.113 0.37-0.641 0.409-0.73 0.281-0.636 0.459-1.203 0.542-1.77 0.030-0.271 0.054-0.769 0.035-0.888zM17.161 25.536c-0.094 0.054-0.158 0.079-0.173 0.069-0.015-0.005-0.084-0.064-0.158-0.118l-0.133-0.108-0.138 0.148c-0.301 0.325-0.311 0.34-0.399 0.345-0.138 0.015-0.168-0.010-0.335-0.261-0.089-0.128-0.158-0.237-0.158-0.237s-0.064-0.010-0.138-0.015l-0.138-0.015-0.128 0.266-0.113-0.035c-0.089-0.030-0.178-0.064-0.261-0.104l-0.148-0.074v-0.281l2.623 0.010 0.005 0.133c0.005 0.158 0.010 0.153-0.207 0.276zM19.627 24.648l-0.133 0.518c-0.054 0.005-0.104 0.010-0.158 0.005h-0.158l-0.212 0.518-0.242 0.582-0.030 0.069-0.207-0.335v-1.366l-0.039 0.010c-0.084 0.020-0.68 0.099-0.942 0.123-1.080 0.108-2.165 0.084-3.239-0.069-0.173-0.025-0.32-0.044-0.325-0.039s0 0.32 0.010 0.71l0.015 0.7-0.084 0.128c-0.044 0.069-0.089 0.128-0.089 0.133-0.015 0.015-0.064-0.064-0.178-0.291-0.123-0.237-0.212-0.488-0.276-0.749l-0.034-0.143-0.153 0.010-0.153 0.015-0.039-0.182c-0.020-0.099-0.044-0.251-0.054-0.335l-0.015-0.158-0.128-0.113-0.163-0.138c-0.025-0.020-0.034-0.054-0.034-0.084v-0.059l1.233 0.010 0.039 0.128 0.212 0.010 0.828 0.025 0.616 0.015 0.158-0.247 0.163-0.247h0.207l-0.010-1.026-0.271-0.118c-0.873-0.385-1.386-0.823-1.578-1.356-0.039-0.108-0.039-0.148-0.049-0.641-0.005-0.488-0.005-0.532 0.030-0.641 0.069-0.247 0.261-0.439 0.508-0.503 0.084-0.025 0.306-0.025 1.469-0.025l1.371 0.005 0.153 0.074c0.182 0.089 0.266 0.153 0.37 0.291 0.118 0.158 0.153 0.281 0.153 0.582 0 0.429-0.030 0.799-0.074 0.947-0.064 0.202-0.163 0.394-0.286 0.567-0.247 0.316-0.695 0.631-1.104 0.774l-0.118 0.044 0.010 1.035 0.217 0.020 0.148 0.222 0.143 0.222h0.661l0.715 0.010c0.049 0.010 0.059 0.005 0.108-0.079l0.059-0.089h0.567c0.439 0 0.567 0.005 0.567 0.020-0.015-0.005-0.079 0.237-0.153 0.513z"></path>
<path fill="#ffa409" style="fill: var(--color28, #ffa409)" d="M29.448 19.017c-0.010-0.222-0.030-0.532-0.044-0.685-0.212-2.239-0.784-4.068-1.869-6.006-0.044-0.074-0.084-0.148-0.108-0.207-0.010-0.015-0.015-0.030-0.020-0.039v0c0.153-0.459 0.779-2.377 1.277-4.571 0.675-2.978 1.104-6.459-0.207-7.504 0 0-2.268-0.168-5.305 2.81-0.823 0.823-1.578 1.716-2.248 2.668l-0.212-0.069c-1.223-0.399-2.49-0.646-3.767-0.73-0.385-0.030-1.819-0.030-2.288 0-1.415 0.094-2.5 0.306-3.732 0.735-0.049 0.020-0.094 0.035-0.138 0.049-0.695-0.947-1.469-1.834-2.322-2.648-3.161-2.993-5.512-2.82-5.512-2.82-1.39 1.080-0.917 4.719-0.197 7.795 0.473 2.036 1.055 3.826 1.272 4.472-0.019 0.044-0.037 0.079-0.057 0.114l0.003-0.005c-1.149 2.327-1.77 4.571-1.918 6.957 1.287-0.187 4.832-0.399 7.49 2.46 0 0 1.755-4.635 6.489-4.635s5.744 4.635 5.744 4.635c3.136-2.589 6.513-2.505 7.697-2.381l-0.025-0.394zM4.958 10.408s-1.844-4.61-1.371-7.243c0.079-0.444 0.227-0.833 0.459-1.129 0 0 2.091 0.207 5.463 3.954 0 0-0.641 0.311-1.499 0.971 0 0-0.005 0.005-0.010 0.005-0.932 0.715-2.125 1.849-3.042 3.442v0zM12.783 17.257c-0.030 0.059-0.178 0.123-0.345 0.148s-0.68 0.010-0.971-0.025c-1.045-0.138-2.155-0.459-2.963-0.853-0.454-0.222-0.779-0.444-1.021-0.685l-0.138-0.143-0.015-0.187c-0.025-0.325-0.020-0.838 0.020-1.021 0.025-0.153 0.079-0.301 0.153-0.434 0.039-0.049 0.039-0.049 0.217-0.049 0.217 0 0.399 0.034 0.695 0.128 0.606 0.187 1.509 0.641 2.608 1.302 0.907 0.542 1.247 0.809 1.509 1.173 0.178 0.227 0.296 0.547 0.251 0.646zM24.399 15.625c-0.015 0.079-0.247 0.316-0.478 0.488-0.68 0.498-1.898 0.961-3.136 1.183-0.705 0.128-1.41 0.148-1.622 0.044-0.138-0.069-0.158-0.123-0.108-0.301 0.104-0.37 0.439-0.774 0.961-1.154 0.266-0.192 1.346-0.848 1.849-1.124 0.828-0.454 1.499-0.725 1.953-0.789 0.143-0.020 0.316-0.025 0.37 0 0.089 0.034 0.187 0.296 0.227 0.611 0.020 0.168 0.010 0.907-0.015 1.040zM23.581 6.962l-0.010-0.005c-0.828-0.661-1.45-0.971-1.45-0.971 3.259-3.747 5.276-3.954 5.276-3.954 0.222 0.301 0.365 0.685 0.444 1.129 0.459 2.633-1.321 7.248-1.321 7.248-0.745-1.326-1.745-2.5-2.939-3.447v0z"></path>
<path fill="#ff9300" style="fill: var(--color29, #ff9300)" d="M27.846 3.16c-0.385-0.049-2.204-0.059-4.265 3.802l-0.010-0.005c-0.828-0.661-1.45-0.971-1.45-0.971 3.259-3.747 5.276-3.954 5.276-3.954 0.227 0.301 0.37 0.685 0.449 1.129z"></path>
<path fill="#ff8300" style="fill: var(--color30, #ff8300)" d="M26.525 10.408c-0.749-1.331-1.745-2.5-2.944-3.447 2.061-3.861 3.875-3.851 4.265-3.802 0.459 2.638-1.321 7.248-1.321 7.248z"></path>
<path fill="#ff8300" style="fill: var(--color30, #ff8300)" d="M27.92 3.175v0z"></path>
<path fill="#ff9300" style="fill: var(--color29, #ff9300)" d="M9.509 5.986s-0.641 0.311-1.499 0.971c0 0-0.005 0.005-0.010 0.005-2.135-3.866-4.014-3.851-4.418-3.802 0.079-0.444 0.227-0.833 0.459-1.129 0.005 0 2.096 0.207 5.468 3.954z"></path>
<path fill="#ff8300" style="fill: var(--color30, #ff8300)" d="M8.005 6.962c-0.937 0.72-2.13 1.849-3.047 3.447 0 0-1.844-4.61-1.371-7.248 0.399-0.049 2.283-0.059 4.418 3.802z"></path>
<path fill="#ff8300" style="fill: var(--color30, #ff8300)" d="M3.587 3.16v0z"></path>
<path fill="#fff" style="fill: var(--color3, #fff)" d="M21.535 12.967s-1.578 0.099-1.381-1.134 1.43-1.381 1.775-1.331 1.726 0.542 1.479 1.578-0.592 0.838-0.789 0.888-1.085 0-1.085 0zM9.898 12.967s-1.578 0.099-1.381-1.134 1.43-1.381 1.775-1.331 1.726 0.542 1.479 1.578-0.592 0.838-0.789 0.888-1.085 0-1.085 0z"></path>
</symbol>
<symbol id="icon-sol" viewBox="0 0 32 32">
<path fill="#66f9a1" style="fill: var(--color31, #66f9a1)" d="M32 16c0 8.837-7.163 16-16 16s-16-7.163-16-16c0-8.837 7.163-16 16-16s16 7.163 16 16z"></path>
<path fill="#fff" style="fill: var(--color3, #fff)" d="M9.925 19.687c0.106-0.105 0.253-0.17 0.414-0.17 0 0 0 0 0.001 0h14.366c0.001-0 0.003-0 0.004-0 0.16 0 0.29 0.13 0.29 0.29 0 0.081-0.033 0.154-0.087 0.207l-0 0-2.838 2.815c-0.107 0.106-0.253 0.171-0.415 0.171h-14.366c-0.001 0-0.002 0-0.002 0-0.161 0-0.291-0.13-0.291-0.291 0-0.081 0.033-0.154 0.086-0.207l0-0 2.838-2.815zM9.925 9.17c0.106-0.105 0.253-0.17 0.414-0.17 0 0 0 0 0.001 0h14.366c0.261 0 0.392 0.314 0.207 0.498l-2.838 2.815c-0.106 0.105-0.253 0.17-0.414 0.17-0 0-0 0-0.001 0h-14.366c-0 0-0.001 0-0.001 0-0.161 0-0.291-0.13-0.291-0.291 0-0.080 0.033-0.153 0.085-0.206v0l2.838-2.816zM22.075 14.395c-0.106-0.105-0.253-0.17-0.414-0.17-0 0-0 0-0.001 0h-14.366c-0.001 0-0.002 0-0.002 0-0.161 0-0.291 0.13-0.291 0.291 0 0.081 0.033 0.154 0.086 0.207l0 0 2.838 2.815c0.11 0.109 0.26 0.17 0.415 0.17h14.366c0.001 0 0.002 0 0.002 0 0.161 0 0.291-0.13 0.291-0.291 0-0.081-0.033-0.154-0.086-0.207l-0-0-2.838-2.815z"></path>
</symbol>
<symbol id="icon-sushi" viewBox="0 0 32 32">
<path fill="#d65892" style="fill: var(--color32, #d65892)" d="M32 16c0 8.837-7.163 16-16 16s-16-7.163-16-16c0-8.837 7.163-16 16-16s16 7.163 16 16z"></path>
<path fill="#fff" style="fill: var(--color3, #fff)" d="M13.794 7.020c1.862 0.157 4.327 1.18 6.702 2.912 2.366 1.742 4.102 3.815 4.84 5.566 0.54 1.271 0.558 2.396 0.018 3.17l-3.706 5.307c-0.54 0.774-1.593 1.115-2.933 1.005-1.862-0.166-4.336-1.18-6.702-2.921-2.375-1.733-4.102-3.806-4.85-5.557-0.539-1.271-0.557-2.396-0.017-3.17l3.715-5.307c0.54-0.774 1.584-1.115 2.933-1.005zM21.582 19.468c-0.006-0.001-0.014-0.002-0.021-0.002-0.074 0-0.134 0.060-0.134 0.134 0 0.065 0.047 0.12 0.108 0.132l0.001 0c0.732 0.13 1.387 0.153 1.934 0.064 0.060-0.014 0.104-0.067 0.104-0.131 0-0.074-0.060-0.134-0.134-0.134-0.005 0-0.009 0-0.014 0.001l0.001-0c-0.514 0.084-1.14 0.061-1.845-0.064zM20.391 19.321c-0.003 0.011-0.005 0.024-0.005 0.037 0 0.061 0.041 0.112 0.096 0.129l0.001 0c0.176 0.050 0.35 0.095 0.521 0.135 0.005 0.001 0.012 0.001 0.018 0.001 0.074 0 0.134-0.060 0.134-0.134 0-0.059-0.038-0.109-0.091-0.127l-0.001-0c-0.166-0.040-0.336-0.084-0.509-0.133-0.011-0.003-0.023-0.005-0.036-0.005-0.061 0-0.112 0.041-0.128 0.096l-0 0.001zM11.374 8.403l-0.018 0.036c-0.405 0.618-0.315 1.493 0.108 2.488 0.71 1.677 2.375 3.64 4.633 5.299s4.606 2.644 6.378 2.792c1.062 0.083 1.898-0.11 2.34-0.691l0.026-0.046c0.432-0.609 0.342-1.512-0.080-2.525-0.711-1.668-2.376-3.63-4.643-5.29-2.258-1.658-4.606-2.644-6.378-2.791-1.080-0.093-1.934 0.11-2.366 0.728zM10.63 10.851c-0.056 0.017-0.095 0.068-0.095 0.128 0 0.013 0.002 0.026 0.006 0.039l-0-0.001c0.456 1.564 1.614 3.053 3.435 4.73l0.205 0.188c0.109 0.1 0.248 0.224 0.387 0.347l0.039 0.033c0.056 0.048 0.14 0.042 0.188-0.014 0.020-0.023 0.033-0.054 0.033-0.088 0-0.040-0.018-0.076-0.046-0.101l-0-0c-0.11-0.095-0.216-0.19-0.322-0.285l-0.207-0.188c-1.843-1.683-3.010-3.166-3.457-4.697-0.016-0.056-0.067-0.096-0.128-0.096-0.013 0-0.026 0.002-0.038 0.006l0.001-0zM15.881 10.568c0.882 0.083 2.060 0.571 3.185 1.4 1.133 0.83 1.97 1.816 2.32 2.654 0.208 0.47 0.262 0.885 0.055 1.17-0.198 0.286-0.603 0.37-1.098 0.323-0.89-0.074-2.060-0.571-3.193-1.4s-1.97-1.807-2.321-2.645c-0.198-0.47-0.252-0.885-0.054-1.17s0.602-0.369 1.106-0.332zM10.484 9.79c-0.071 0.003-0.128 0.062-0.128 0.134 0 0.002 0 0.004 0 0.005v-0c0.008 0.182 0.027 0.365 0.059 0.55 0.011 0.063 0.066 0.11 0.131 0.11 0.073 0 0.133-0.060 0.133-0.133 0-0.008-0.001-0.016-0.002-0.024l0 0.001c-0.027-0.149-0.047-0.326-0.055-0.507l-0-0.008c-0.003-0.071-0.061-0.128-0.133-0.128-0.002 0-0.004 0-0.005 0h0z"></path>
</symbol>
<symbol id="icon-trx" viewBox="0 0 32 32">
<path fill="#ef0027" style="fill: var(--color33, #ef0027)" d="M32 16c0 8.837-7.163 16-16 16s-16-7.163-16-16c0-8.837 7.163-16 16-16s16 7.163 16 16z"></path>
<path fill="#fff" style="fill: var(--color3, #fff)" d="M21.932 9.913l-14.432-2.656 7.595 19.112 10.583-12.894-3.746-3.562zM21.7 11.083l2.208 2.099-6.038 1.093 3.83-3.192zM16.558 14.056l-6.364-5.278 10.402 1.914-4.038 3.364zM16.105 14.99l-1.038 8.58-5.595-14.083 6.633 5.502zM17.065 15.445l6.687-1.21-7.67 9.343 0.983-8.133z"></path>
</symbol>
<symbol id="icon-uni" viewBox="0 0 32 32">
<path fill="#ff007a" style="fill: var(--color34, #ff007a)" d="M32 16c0 8.837-7.163 16-16 16s-16-7.163-16-16c0-8.837 7.163-16 16-16s16 7.163 16 16z"></path>
<path fill="#fff" style="fill: var(--color3, #fff)" d="M12.261 5.767c-0.285-0.044-0.297-0.050-0.163-0.070 0.257-0.040 0.865 0.015 1.284 0.114 0.977 0.233 1.866 0.828 2.816 1.885l0.252 0.28 0.36-0.057c1.52-0.245 3.067-0.050 4.36 0.547 0.356 0.164 0.917 0.491 0.987 0.576 0.023 0.026 0.064 0.199 0.091 0.383 0.096 0.637 0.048 1.125-0.146 1.49-0.106 0.198-0.112 0.26-0.041 0.43 0.068 0.14 0.209 0.235 0.372 0.236h0c0.322 0 0.668-0.52 0.828-1.243l0.064-0.287 0.126 0.143c0.692 0.784 1.235 1.853 1.328 2.613l0.025 0.199-0.117-0.18c-0.2-0.31-0.4-0.522-0.658-0.693-0.464-0.307-0.955-0.411-2.255-0.48-1.174-0.062-1.839-0.162-2.497-0.377-1.121-0.365-1.686-0.852-3.018-2.599-0.591-0.776-0.957-1.205-1.32-1.55-0.827-0.786-1.639-1.198-2.678-1.36z"></path>
<path fill="#fff" style="fill: var(--color3, #fff)" d="M22.422 7.5c0.030-0.52 0.1-0.863 0.242-1.176 0.056-0.124 0.109-0.226 0.117-0.226-0.010 0.076-0.029 0.145-0.057 0.209l0.002-0.005c-0.103 0.304-0.12 0.72-0.049 1.203 0.090 0.614 0.142 0.702 0.79 1.365 0.305 0.311 0.659 0.703 0.787 0.872l0.233 0.306-0.233-0.219c-0.285-0.267-0.941-0.79-1.086-0.864-0.097-0.050-0.112-0.049-0.172 0.010-0.055 0.056-0.067 0.138-0.074 0.529-0.012 0.608-0.095 1-0.296 1.39-0.108 0.21-0.125 0.166-0.027-0.073 0.073-0.178 0.080-0.256 0.080-0.845 0-1.184-0.141-1.468-0.966-1.956-0.201-0.12-0.451-0.252-0.709-0.373l-0.055-0.023c-0.147-0.059-0.27-0.12-0.388-0.189l0.014 0.007c0.023-0.023 0.827 0.211 1.15 0.336 0.482 0.185 0.561 0.209 0.62 0.186 0.039-0.015 0.058-0.129 0.077-0.464zM12.815 9.525c-0.579-0.797-0.937-2.020-0.86-2.934l0.024-0.283 0.132 0.024c0.248 0.045 0.675 0.204 0.875 0.326 0.548 0.333 0.786 0.772 1.027 1.898 0.071 0.33 0.164 0.703 0.207 0.83 0.068 0.203 0.328 0.678 0.54 0.987 0.152 0.222 0.050 0.327-0.286 0.297-0.514-0.047-1.21-0.527-1.659-1.145zM21.72 15.46c-2.707-1.090-3.66-2.036-3.66-3.632 0-0.235 0.008-0.427 0.017-0.427 0.010 0 0.115 0.077 0.233 0.172 0.549 0.44 1.164 0.628 2.865 0.876 1.001 0.147 1.565 0.265 2.085 0.437 1.652 0.548 2.674 1.66 2.918 3.174 0.070 0.44 0.029 1.265-0.086 1.7-0.090 0.344-0.367 0.963-0.44 0.987-0.020 0.006-0.040-0.071-0.046-0.178-0.028-0.568-0.315-1.122-0.798-1.537-0.549-0.471-1.286-0.847-3.089-1.572zM19.82 15.912c-0.038-0.225-0.083-0.418-0.14-0.606l0.009 0.034-0.070-0.206 0.129 0.144c0.177 0.2 0.318 0.454 0.436 0.794 0.091 0.259 0.101 0.336 0.1 0.757 0 0.414-0.011 0.5-0.095 0.734-0.123 0.356-0.319 0.66-0.571 0.908l-0 0c-0.495 0.504-1.13 0.782-2.048 0.898-0.16 0.020-0.624 0.054-1.033 0.075-1.030 0.054-1.707 0.164-2.316 0.378-0.051 0.023-0.11 0.039-0.173 0.042l-0.001 0c-0.024-0.025 0.39-0.272 0.733-0.437 0.483-0.233 0.963-0.36 2.040-0.539 0.532-0.089 1.082-0.196 1.221-0.239 1.318-0.404 1.995-1.446 1.778-2.737z"></path>
<path fill="#fff" style="fill: var(--color3, #fff)" d="M21.060 18.116c-0.36-0.773-0.442-1.52-0.245-2.216 0.021-0.074 0.055-0.135 0.075-0.135 0.072 0.027 0.135 0.061 0.191 0.103l-0.002-0.001c0.166 0.112 0.498 0.3 1.383 0.782 1.105 0.603 1.735 1.070 2.164 1.602 0.375 0.467 0.607 0.999 0.719 1.647 0.063 0.367 0.026 1.25-0.068 1.62-0.297 1.166-0.988 2.082-1.972 2.616-0.079 0.047-0.174 0.095-0.272 0.137l-0.016 0.006c-0.014 0 0.038-0.133 0.117-0.297 0.33-0.692 0.369-1.366 0.118-2.116-0.153-0.459-0.466-1.020-1.097-1.966-0.734-1.1-0.914-1.394-1.095-1.782zM10.893 22.287c1.005-0.848 2.254-1.45 3.393-1.635 0.49-0.080 1.308-0.048 1.762 0.068 0.728 0.186 1.38 0.604 1.719 1.101 0.33 0.486 0.473 0.91 0.62 1.852 0.060 0.372 0.123 0.745 0.142 0.83 0.11 0.488 0.327 0.879 0.595 1.075 0.425 0.311 1.158 0.33 1.878 0.050 0.068-0.032 0.147-0.058 0.23-0.073l0.006-0.001c0.026 0.026-0.336 0.269-0.592 0.397-0.275 0.15-0.602 0.238-0.95 0.238-0.012 0-0.023-0-0.034-0l0.002 0c-0.66 0-1.208-0.335-1.665-1.020-0.090-0.135-0.292-0.538-0.45-0.897-0.482-1.1-0.72-1.436-1.28-1.803-0.489-0.32-1.118-0.377-1.591-0.145-0.622 0.305-0.795 1.1-0.35 1.603 0.177 0.2 0.507 0.373 0.777 0.406 0.033 0.005 0.071 0.007 0.109 0.007 0.458 0 0.83-0.372 0.83-0.83 0-0.003 0-0.005-0-0.008v0c0-0.332-0.128-0.52-0.448-0.665-0.437-0.197-0.907 0.033-0.905 0.444 0.001 0.175 0.077 0.285 0.253 0.365 0.113 0.050 0.115 0.055 0.023 0.036-0.401-0.084-0.495-0.567-0.172-0.888 0.387-0.386 1.188-0.216 1.463 0.31 0.116 0.221 0.129 0.662 0.028 0.928-0.225 0.595-0.883 0.907-1.55 0.737-0.454-0.116-0.639-0.241-1.186-0.805-0.951-0.98-1.32-1.17-2.692-1.384l-0.263-0.041 0.3-0.253z"></path>
<path fill="#fff" style="fill: var(--color3, #fff)" d="M6.196 3.35l0.096 0.117c3.708 4.54 5.624 6.896 5.746 7.064 0.2 0.278 0.125 0.527-0.219 0.723-0.191 0.109-0.585 0.219-0.781 0.219-0.223 0-0.474-0.107-0.657-0.28-0.129-0.123-0.65-0.901-1.853-2.768-1.006-1.603-1.57-2.461-2.142-3.315l0.43 0.682c-0.049-0.046-0.048-0.045 1.618 2.936 1.046 1.872 1.4 2.533 1.4 2.622 0 0.18-0.050 0.274-0.272 0.522-0.37 0.413-0.535 0.877-0.655 1.837-0.134 1.077-0.51 1.837-1.554 3.138-0.61 0.762-0.71 0.902-0.865 1.209-0.194 0.386-0.247 0.603-0.269 1.091-0.023 0.516 0.022 0.85 0.18 1.343 0.138 0.432 0.282 0.718 0.65 1.288 0.318 0.493 0.501 0.859 0.501 1.002 0 0.114 0.022 0.114 0.515 0.003 1.179-0.266 2.136-0.735 2.675-1.309 0.333-0.355 0.411-0.551 0.414-1.038 0.001-0.318-0.010-0.385-0.096-0.568-0.14-0.298-0.395-0.546-0.957-0.93-0.737-0.504-1.051-0.91-1.138-1.467-0.072-0.457 0.011-0.78 0.419-1.634 0.421-0.884 0.526-1.26 0.597-2.151 0.045-0.576 0.108-0.803 0.274-0.985 0.172-0.19 0.328-0.255 0.755-0.313 0.696-0.095 1.139-0.275 1.503-0.61 0.316-0.292 0.448-0.573 0.468-0.995l0.016-0.32-0.177-0.206c-0.254-0.296-2.355-2.614-6.304-6.956l-0.106-0.115-0.212 0.165zM7.91 19.732c0.046-0.080 0.073-0.176 0.073-0.278 0-0.194-0.097-0.364-0.245-0.466l-0.002-0.001c-0.228-0.152-0.583-0.080-0.583 0.118 0 0.060 0.033 0.104 0.108 0.143 0.127 0.065 0.136 0.139 0.037 0.288-0.101 0.152-0.093 0.286 0.023 0.377 0.186 0.146 0.45 0.065 0.59-0.18zM13.434 12.556c-0.327 0.1-0.644 0.447-0.743 0.81-0.060 0.221-0.026 0.61 0.064 0.73 0.145 0.194 0.286 0.245 0.666 0.242 0.744-0.005 1.39-0.324 1.466-0.723 0.062-0.327-0.223-0.78-0.614-0.98-0.202-0.102-0.631-0.143-0.839-0.079zM14.304 13.236c0.115-0.163 0.064-0.34-0.13-0.458-0.372-0.227-0.934-0.040-0.934 0.312 0 0.174 0.293 0.365 0.561 0.365 0.18 0 0.424-0.107 0.503-0.219z"></path>
</symbol>
<symbol id="icon-usd" viewBox="0 0 32 32">
<path fill="#6cde07" style="fill: var(--color35, #6cde07)" d="M32 16c0 8.837-7.163 16-16 16s-16-7.163-16-16c0-8.837 7.163-16 16-16s16 7.163 16 16z"></path>
<path fill="#fff" style="fill: var(--color3, #fff)" d="M22.5 19.154c0 2.57-2.086 4.276-5.166 4.533v2.313h-2.11v-2.336c-2.185-0.253-4.138-1.084-5.75-2.334l0.026 0.020 1.552-2.126c1.383 1.075 2.692 1.776 4.269 2.010v-4.58c-3.541-0.888-5.19-2.173-5.19-4.813 0-2.523 2.061-4.252 5.093-4.486v-1.355h2.11v1.402c1.732 0.197 3.286 0.834 4.586 1.794l-0.026-0.018-1.359 2.196c-1.067-0.771-2.158-1.262-3.298-1.495v4.439c3.687 0.888 5.263 2.313 5.263 4.836zM15.32 13.827v-4.112c-1.527 0.117-2.327 0.935-2.327 1.963 0 0.98 0.46 1.612 2.328 2.15zM19.638 19.317c0-1.050-0.51-1.681-2.401-2.219v4.23c1.528-0.118 2.401-0.889 2.401-2.010z"></path>
</symbol>
<symbol id="icon-usdt" viewBox="0 0 32 32">
<path fill="#26a17b" style="fill: var(--color36, #26a17b)" d="M32 16c0 8.837-7.163 16-16 16s-16-7.163-16-16c0-8.837 7.163-16 16-16s16 7.163 16 16z"></path>
<path fill="#fff" style="fill: var(--color3, #fff)" d="M17.922 17.383v-0.002c-0.11 0.008-0.677 0.042-1.942 0.042-1.010 0-1.721-0.030-1.971-0.042v0.003c-3.888-0.171-6.79-0.848-6.79-1.658 0-0.809 2.902-1.486 6.79-1.66v2.644c0.254 0.018 0.982 0.061 1.988 0.061 1.207 0 1.812-0.050 1.925-0.060v-2.643c3.88 0.173 6.775 0.85 6.775 1.658 0 0.81-2.895 1.485-6.775 1.657zM17.922 13.793v-2.366h5.414v-3.608h-14.741v3.608h5.414v2.365c-4.4 0.202-7.709 1.074-7.709 2.118s3.309 1.915 7.709 2.118v7.582h3.913v-7.584c4.393-0.202 7.694-1.073 7.694-2.116s-3.301-1.914-7.694-2.117z"></path>
</symbol>
<symbol id="icon-xlm" viewBox="0 0 32 32">
<path fill="#000" style="fill: var(--color2, #000)" d="M32 16c0 8.837-7.163 16-16 16s-16-7.163-16-16c0-8.837 7.163-16 16-16s16 7.163 16 16z"></path>
<path fill="#fff" style="fill: var(--color3, #fff)" d="M23.13 9.292l-13.998 7.131c-0.037-0.268-0.058-0.577-0.058-0.892 0-3.816 3.093-6.909 6.909-6.909 1.236 0 2.397 0.325 3.401 0.894l-0.034-0.018 1.579-0.805c-1.372-1.005-3.094-1.609-4.956-1.609-4.661 0-8.439 3.778-8.439 8.439 0 0.226 0.009 0.45 0.026 0.671l-0.002-0.029c0.003 0.035 0.004 0.075 0.004 0.116 0 0.594-0.337 1.108-0.83 1.364l-0.009 0.004-0.725 0.37v1.724l19.946-10.164v-1.723l-2.815 1.436zM25.946 11.304l-19.946 10.159v1.723l16.819-8.57c0.038 0.271 0.059 0.585 0.059 0.904 0 3.816-3.093 6.909-6.909 6.909-1.242 0-2.407-0.327-3.413-0.901l0.034 0.018-0.085 0.045-1.49 0.76c1.372 1.006 3.095 1.61 4.958 1.61 4.661 0 8.439-3.778 8.439-8.439 0-0.227-0.009-0.453-0.027-0.675l0.002 0.029c-0.003-0.034-0.004-0.075-0.004-0.115 0-0.593 0.336-1.108 0.829-1.364l0.009-0.004 0.726-0.37v-1.718z"></path>
</symbol>
<symbol id="icon-xrp" viewBox="0 0 32 32">
<path fill="#23292f" style="fill: var(--color37, #23292f)" d="M32 16c0 8.837-7.163 16-16 16s-16-7.163-16-16c0-8.837 7.163-16 16-16s16 7.163 16 16z"></path>
<path fill="#fff" style="fill: var(--color3, #fff)" d="M23.070 8h2.89l-6.015 5.957c-1.014 1-2.407 1.617-3.945 1.617s-2.931-0.617-3.946-1.618l0.001 0.001-6.020-5.957h2.895l4.57 4.523c0.642 0.634 1.524 1.025 2.498 1.025s1.856-0.391 2.498-1.026l-0 0 4.574-4.523zM8.895 24.563h-2.895l6.055-5.993c1.014-1 2.408-1.617 3.945-1.617s2.931 0.617 3.946 1.618l-0.001-0.001 6.055 5.992h-2.895l-4.605-4.562c-0.642-0.634-1.524-1.025-2.498-1.025s-1.856 0.391-2.498 1.026l0-0-4.61 4.563z"></path>
</symbol>
</defs>
</svg>
